# xmcd
#
# Track frame offsets: 
#        150
#        25335
#        44107
#        67747
#        90642
#        103755
#        119022
#        133110
#        160362
#        174042
#        189000
#        203767
#
# Disc length: 2862 seconds
#
# Revision: 0
# Processed by: cddbd v1.5.2PL0 Copyright (c) Steve Scherf et al.
# Submitted via: ExactAudioCopy v0.95b2
#
DISCID=9f0b2c0c
DTITLE=Various Artist - Best of Blues (volume 1)
DYEAR=1992
DGENRE=Blues
TTITLE0=B.B. King - The Thrill Is Gone
TTITLE1=Bobby Bland - Stormy Monday Blues
TTITLE2=John Lee Hooker - Lonesome Mood
TTITLE3=Brownie McGhee and Sonny Terry - Brownie's New Blues
TTITLE4=T-Bone Walker - Why My Baby (Keep On Bothering Me)
TTITLE5=Joe Turner - Little Bittie Gals Blues
TTITLE6=Memphis Minnie McCoy - Moanin' The Blues
TTITLE7=B.B. King and Bobby Bland - I Like To Live The Love
TTITLE8=Little Milton - Hard Luck Blues
TTITLE9=Muddy Waters - She's 19 Years Old
TTITLE10=Eddie Boyd - Third Degree
TTITLE11=Billy Stewart - Billy's Blues, Part II
EXTD=
EXTT0=
EXTT1=
EXTT2=
EXTT3=
EXTT4=
EXTT5=
EXTT6=
EXTT7=
EXTT8=
EXTT9=
EXTT10=
EXTT11=
PLAYORDER=
